<svg xmlns="http://www.w3.org/2000/svg" width="150.891" height="37.355" viewBox="0 0 113.168 28.016"><g data-name="Camada 1" fill="#1dd75e"><path d="M10.048 22.36c-1.584 0-2.944-.276-4.08-.828-1.136-.552-2.072-1.28-2.808-2.184a9.284 9.284 0 0 1-1.632-2.94C1.176 15.352 1 14.328 1 13.336v-.528c0-1.104.18-2.188.54-3.252a8.643 8.643 0 0 1 1.656-2.892C3.94 5.8 4.872 5.112 5.992 4.6c1.12-.512 2.432-.768 3.936-.768 1.6 0 3.02.3 4.26.9 1.24.6 2.236 1.44 2.988 2.52.752 1.08 1.192 2.332 1.32 3.756h-4.464a3.43 3.43 0 0 0-.72-1.584 3.68 3.68 0 0 0-1.416-1.044c-.576-.248-1.232-.372-1.968-.372-.688 0-1.308.12-1.86.36s-1.016.58-1.392 1.02c-.376.44-.664.972-.864 1.596-.2.624-.3 1.328-.3 2.112s.1 1.488.3 2.112c.2.624.496 1.16.888 1.608.392.448.868.788 1.428 1.02.56.232 1.2.348 1.92.348 1.12 0 2.068-.272 2.844-.816.776-.544 1.244-1.272 1.404-2.184h4.464a7.86 7.86 0 0 1-1.32 3.6c-.736 1.088-1.728 1.956-2.976 2.604-1.248.648-2.72.972-4.416.972M27.52 22.36c-1.168 0-2.208-.176-3.12-.528-.912-.352-1.684-.84-2.316-1.464a6.318 6.318 0 0 1-1.44-2.16 6.948 6.948 0 0 1-.492-2.616v-.576c0-.96.172-1.856.516-2.688a6.468 6.468 0 0 1 1.476-2.184c.64-.624 1.416-1.112 2.328-1.464.912-.352 1.928-.528 3.048-.528 1.136 0 2.156.176 3.06.528a6.81 6.81 0 0 1 2.316 1.464 6.469 6.469 0 0 1 1.476 2.184c.344.832.516 1.728.516 2.688v.576c0 .928-.164 1.8-.492 2.616a6.322 6.322 0 0 1-1.44 2.16c-.632.624-1.404 1.112-2.316 1.464-.912.352-1.952.528-3.12.528zm0-3.648c.672 0 1.228-.144 1.668-.432.44-.288.772-.692.996-1.212.224-.52.336-1.108.336-1.764 0-.688-.116-1.292-.348-1.812a2.87 2.87 0 0 0-1.02-1.236c-.448-.304-.992-.456-1.632-.456-.64 0-1.184.152-1.632.456a2.87 2.87 0 0 0-1.02 1.236c-.232.52-.348 1.124-.348 1.812 0 .656.112 1.244.336 1.764.224.52.56.924 1.008 1.212.448.288 1 .432 1.656.432M42.736 22.312c-.928 0-1.772-.168-2.532-.504a5.865 5.865 0 0 1-1.968-1.404 6.24 6.24 0 0 1-1.272-2.124 7.757 7.757 0 0 1-.444-2.664v-.576c0-.96.14-1.852.42-2.676a6.487 6.487 0 0 1 1.212-2.16 5.52 5.52 0 0 1 1.92-1.44c.752-.344 1.592-.516 2.52-.516 1.072 0 1.988.236 2.748.708.76.472 1.344 1.156 1.752 2.052.408.896.628 1.984.66 3.264l-1.008-.744V4.36h4.368v17.52h-3.456v-5.376h.48c-.032 1.184-.272 2.212-.72 3.084-.448.872-1.068 1.544-1.86 2.016s-1.732.708-2.82.708zm1.176-3.6a2.98 2.98 0 0 0 1.452-.36c.44-.24.796-.592 1.068-1.056.272-.464.408-1.024.408-1.68V14.8c0-.64-.14-1.176-.42-1.608a2.865 2.865 0 0 0-1.08-.996 3.014 3.014 0 0 0-1.428-.348 2.78 2.78 0 0 0-1.548.444 3.09 3.09 0 0 0-1.08 1.224c-.264.52-.396 1.124-.396 1.812s.132 1.284.396 1.788.624.896 1.08 1.176c.456.28.972.42 1.548.42M55.216 21.88V8.848h3.336V21.88zm-1.824-10.536V8.848h5.16v2.496zm3.048-4.056c-.656 0-1.14-.172-1.452-.516-.312-.344-.468-.78-.468-1.308s.156-.96.468-1.296c.312-.336.796-.504 1.452-.504.656 0 1.136.168 1.44.504.304.336.456.768.456 1.296s-.152.964-.456 1.308c-.304.344-.784.516-1.44.516M62.704 21.88V8.536c0-1.488.412-2.588 1.236-3.3.825-.712 2.044-1.068 3.66-1.068h1.633v2.568H67.36c-.496 0-.876.132-1.14.396-.263.264-.396.636-.396 1.116V21.88zm-1.632-10.368V9.064h8.376v2.448zM71.56 27.016V24.16h2.448c.464 0 .852-.06 1.164-.18.312-.12.572-.312.78-.576.208-.264.368-.628.48-1.092l3.504-13.464h3.192l-3.864 14.184c-.256.976-.616 1.756-1.08 2.34a3.874 3.874 0 0 1-1.788 1.26c-.728.256-1.628.384-2.7.384zm4.056-5.424v-2.64H78.4v2.64zm-1.128 0L70.264 8.848h3.36l4.008 12.744z"/><path d="M86.728 13.72C86.728 6.696 92.424 1 99.448 1c7.024 0 12.72 5.696 12.72 12.72 0 7.024-5.696 12.72-12.72 12.72-7.024 0-12.72-5.696-12.72-12.72zm9.356-5.411a1.191 1.191 0 0 0-.61 1.039v8.744a1.195 1.195 0 0 0 1.819 1.014l7.154-4.372a1.2 1.2 0 0 0 .57-1.02c0-.416-.218-.8-.57-1.018l-7.155-4.372a1.206 1.206 0 0 0-1.208-.025z" fill-rule="evenodd"/></g></svg>